HIERARCHY
ROOT Hips
{
	OFFSET 0.000000 0.000000 0.000000
	CHANNELS 6 Xposition Yposition Zposition Xrotation Yrotation Zrotation
	JOINT LeftUpLeg_virtual
	{
		OFFSET 0.000000 0.000000 0.000000
		CHANNELS 3 Xrotation Yrotation Zrotation
		JOINT LeftUpLeg
		{
			OFFSET 15.427100 -6.655098 0.678600
			CHANNELS 3 Xrotation Yrotation Zrotation
			JOINT LeftLeg
			{
				OFFSET 4.081073 -39.591068 13.024000
				CHANNELS 3 Xrotation Yrotation Zrotation
				JOINT LeftFoot
				{
					OFFSET -4.081074 -37.707932 -15.979700
					CHANNELS 3 Xrotation Yrotation Zrotation
					JOINT LeftToeBase
					{
						OFFSET 5.346399 -15.068900 20.645000
						CHANNELS 3 Xrotation Yrotation Zrotation
						JOINT LeftToe_End
						{
							OFFSET 2.754700 0.931300 11.300900
							CHANNELS 3 Xrotation Yrotation Zrotation
							End Site
							{
								OFFSET 0 0 0
							}
						}
					}
				}
			}
		}
	}
	JOINT RightUpLeg_virtual
	{
		OFFSET 0.000000 0.000000 0.000000
		CHANNELS 3 Xrotation Yrotation Zrotation
		JOINT RightUpLeg
		{
			OFFSET -15.569500 -6.655098 0.678600
			CHANNELS 3 Xrotation Yrotation Zrotation
			JOINT RightLeg
			{
				OFFSET -4.081825 -39.591045 13.023800
				CHANNELS 3 Xrotation Yrotation Zrotation
				JOINT RightFoot
				{
					OFFSET 4.081824 -37.707954 -15.979600
					CHANNELS 3 Xrotation Yrotation Zrotation
					JOINT RightToeBase
					{
						OFFSET -5.346400 -15.068900 20.645000
						CHANNELS 3 Xrotation Yrotation Zrotation
						JOINT RightToe_End
						{
							OFFSET -2.754700 0.931300 11.300900
							CHANNELS 3 Xrotation Yrotation Zrotation
							End Site
							{
								OFFSET 0 0 0
							}
						}
					}
				}
			}
		}
	}
	JOINT Spine_virtual
	{
		OFFSET 0.000000 0.000000 0.000000
		CHANNELS 3 Xrotation Yrotation Zrotation
		JOINT Spine
		{
			OFFSET -0.279200 12.230698 -2.892100
			CHANNELS 3 Xrotation Yrotation Zrotation
			JOINT Spine1
			{
				OFFSET -0.232667 10.192268 -1.242267
				CHANNELS 3 Xrotation Yrotation Zrotation
				JOINT Spine1_split
				{
					OFFSET -0.232667 10.192268 -1.242267
					CHANNELS 3 Xrotation Yrotation Zrotation
					JOINT Spine2
					{
						OFFSET -0.232667 10.192268 -1.242267
						CHANNELS 3 Xrotation Yrotation Zrotation
						JOINT Neck_virtual
						{
							OFFSET 0.000000 0.000000 0.000000
							CHANNELS 3 Xrotation Yrotation Zrotation
							JOINT Neck
							{
								OFFSET -0.418800 17.814194 8.416900
								CHANNELS 3 Xrotation Yrotation Zrotation
								JOINT Head
								{
									OFFSET 0.000000 7.031097 3.806800
									CHANNELS 3 Xrotation Yrotation Zrotation
									JOINT HeadTop_End
									{
										OFFSET 0.000000 24.646606 12.978600
										CHANNELS 3 Xrotation Yrotation Zrotation
										End Site
										{
											OFFSET 0 0 0
										}
									}
								}
							}
						}
						JOINT LeftShoulder_virtual
						{
							OFFSET 0.000000 0.000000 0.000000
							CHANNELS 3 Xrotation Yrotation Zrotation
							JOINT LeftShoulder
							{
								OFFSET 8.476499 7.247704 -3.868750
								CHANNELS 3 Xrotation Yrotation Zrotation
								JOINT LeftShoulder_split
								{
									OFFSET 8.476499 7.247704 -3.868750
									CHANNELS 3 Xrotation Yrotation Zrotation
									JOINT LeftArm
									{
										OFFSET 9.308998 -2.777710 0.208600
										CHANNELS 3 Xrotation Yrotation Zrotation
										JOINT LeftForeArm
										{
											OFFSET 29.972298 0.000000 0.000000
											CHANNELS 3 Xrotation Yrotation Zrotation
											JOINT LeftHand
											{
												OFFSET 26.026505 0.000000 0.000000
												CHANNELS 3 Xrotation Yrotation Zrotation
												End Site
												{
													OFFSET 0 0 0
												}
											}
										}
									}
								}
							}
						}
						JOINT RightShoulder_virtual
						{
							OFFSET 0.000000 0.000000 0.000000
							CHANNELS 3 Xrotation Yrotation Zrotation
							JOINT RightShoulder
							{
								OFFSET -7.570500 7.247704 -3.868750
								CHANNELS 3 Xrotation Yrotation Zrotation
								JOINT RightShoulder_split
								{
									OFFSET -7.570500 7.247704 -3.868750
									CHANNELS 3 Xrotation Yrotation Zrotation
									JOINT RightArm
									{
										OFFSET -9.308998 -2.777710 0.208500
										CHANNELS 3 Xrotation Yrotation Zrotation
										JOINT RightForeArm
										{
											OFFSET -29.972300 0.000000 0.000000
											CHANNELS 3 Xrotation Yrotation Zrotation
											JOINT RightHand
											{
												OFFSET -26.026505 0.000000 0.000000
												CHANNELS 3 Xrotation Yrotation Zrotation
												End Site
												{
													OFFSET 0 0 0
												}
											}
										}
									}
								}
							}
						}
					}
				}
			}
		}
	}
}
MOTION
Frames: 9
Frame Time: 0.03333333
3.967790 151.365646 9.274593 0.000000 0.000000 0.000000 7.429514 -16.697550 7.424837 -83.823961 0.945885 16.805747 60.432025 -3.672120 -8.115995 5.235905 -16.782060 3.693700 0.431790 -1.150810 0.071345 0.000000 0.000000 0.000000 6.606357 -7.183631 6.490637 -76.676004 5.748046 -5.086002 111.171670 0.218012 -4.170383 9.836505 5.562033 13.098947 17.472227 0.807847 -0.441962 0.000000 0.000000 0.000000 0.420099 -7.273754 8.980865 30.158150 -5.652365 -10.813415 1.123624 -3.333760 -2.274594 3.006699 -0.349761 0.434931 0.000000 0.000000 0.000000 4.149812 -1.819025 -1.304236 -22.828497 4.540635 6.524898 18.547913 3.698412 -18.078232 0.000000 0.000000 0.000000 3.071284 -1.998378 -1.187673 12.918669 -38.504754 33.846603 -4.770839 -0.620391 0.816994 -66.585561 14.506249 18.315111 -45.858529 -68.790319 -29.137071 0.000000 0.000000 0.000000 3.524653 -2.223472 -1.195612 0.964482 8.332080 -16.667306 5.952735 1.878091 -3.235487 -84.087005 -9.994288 -15.970005 -66.146721 68.105435 63.252483 0.000000 0.000000 0.000000 
2.358876 150.424622 15.907383 0.000000 0.000000 0.000000 5.039349 -16.350846 7.204041 -83.825703 1.340128 18.181149 56.101552 -2.782873 -8.619507 7.934512 -15.191148 6.504107 -0.031673 -0.738120 -0.560276 0.000000 0.000000 0.000000 5.291119 -10.161621 6.823468 -75.237334 4.550152 -6.818521 109.167685 0.578046 -3.187429 10.112737 4.395508 13.849161 14.913496 0.807218 -0.615349 0.000000 0.000000 0.000000 -1.179862 -7.239937 7.944555 30.006503 -5.503594 -10.463584 0.699106 -3.119510 -2.535045 2.027248 -2.185669 0.864358 0.000000 0.000000 0.000000 4.098420 -1.721649 -1.593582 -22.740813 3.619687 7.591044 17.948445 4.387619 -18.750164 0.000000 0.000000 0.000000 2.723362 -1.839499 -1.541523 10.995183 -37.500259 31.161632 -3.977354 -2.193975 1.616874 -65.020696 13.057039 16.729794 -54.189331 -70.775445 -37.541810 0.000000 0.000000 0.000000 3.321033 -2.071760 -1.573448 0.549813 8.350543 -16.907753 6.887322 0.645143 -1.263270 -83.299327 -10.142318 -13.463519 -67.836524 67.810002 65.002938 0.000000 0.000000 0.000000 
0.486360 148.377808 25.255768 0.000000 0.000000 0.000000 2.812012 -17.036090 7.546166 -79.784293 0.255075 18.485009 46.283271 -1.036384 -8.812277 14.440867 -12.057628 7.810703 -0.316710 -0.277736 -0.742886 0.000000 0.000000 0.000000 3.308749 -14.759877 7.488009 -69.721321 2.607752 -9.195893 103.006650 1.167617 -2.421189 10.787535 2.034080 14.615874 13.844375 0.901591 -0.036438 0.000000 0.000000 0.000000 -3.007310 -8.797058 7.125727 28.317476 -4.924466 -9.280433 0.746401 -2.878952 -3.424854 1.209509 -3.880540 1.756826 0.000000 0.000000 0.000000 4.687959 -1.703370 -2.510356 -22.113338 2.674768 9.964283 18.224381 5.539225 -19.299816 0.000000 0.000000 0.000000 3.121371 -1.781862 -2.539563 7.661797 -34.853219 26.170628 -3.037224 -3.150234 1.717268 -61.443309 9.442038 14.043681 -60.372964 -71.941057 -43.593518 0.000000 0.000000 0.000000 3.526626 -2.089685 -2.598482 0.293568 10.313937 -16.201687 6.796438 -0.092684 0.107059 -81.028057 -11.417745 -11.183882 -72.721796 67.590336 69.735945 0.000000 0.000000 0.000000 
-1.133862 145.157227 35.824135 0.000000 0.000000 0.000000 0.348811 -18.938673 7.962601 -72.417648 -2.327609 18.019721 33.419214 1.075605 -8.175425 23.473566 -7.900486 6.709606 0.030091 0.223322 -0.806858 0.000000 0.000000 0.000000 1.174219 -19.558527 8.089595 -60.351470 -0.118913 -11.541086 92.959804 1.810930 -1.580887 11.789556 -1.084128 14.859857 13.821984 1.030668 1.021070 0.000000 0.000000 0.000000 -5.357652 -12.025647 6.543220 25.426810 -4.043283 -7.313283 1.363523 -2.603607 -4.752251 1.617923 -5.129226 2.264538 0.000000 0.000000 0.000000 5.583391 -1.731874 -3.808215 -20.896351 1.859397 12.938321 19.074401 6.959944 -19.723898 0.000000 0.000000 0.000000 4.120092 -1.766726 -4.019268 3.759997 -30.845278 19.738646 -1.701463 -2.974102 1.718649 -56.813763 4.202194 10.799478 -61.003527 -71.939145 -43.839392 0.000000 0.000000 0.000000 4.130568 -2.163718 -4.075059 0.146370 13.803367 -14.850834 6.073289 -0.047004 0.990444 -78.164740 -14.086313 -10.028579 -79.690768 67.235590 76.385830 0.000000 0.000000 0.000000 
-2.376870 140.474182 47.262196 0.000000 0.000000 0.000000 -2.186714 -22.648535 8.270608 -63.208476 -6.127978 17.322743 20.610630 2.877911 -6.542933 32.694650 -4.303388 3.584873 0.606948 0.736276 -0.861047 0.000000 0.000000 0.000000 -0.956544 -24.039626 8.360375 -49.162722 -3.610206 -13.697522 80.092335 2.576280 -0.698313 12.902359 -3.865024 14.994700 12.934252 1.156464 2.006295 0.000000 0.000000 0.000000 -7.468165 -16.701894 6.073765 21.830254 -2.970862 -4.622139 2.429729 -2.173168 -6.235905 1.887374 -5.352537 2.232655 0.000000 0.000000 0.000000 6.611273 -1.611498 -5.245150 -19.359078 1.450386 15.584613 19.953366 8.582148 -20.084238 0.000000 0.000000 0.000000 5.349207 -1.611423 -5.672698 0.156869 -26.166503 13.059696 -0.585009 -2.048905 2.187912 -52.420653 -1.384579 7.886422 -57.563441 -70.872850 -39.705683 0.000000 0.000000 0.000000 5.036666 -2.064893 -5.738513 -0.013400 18.100927 -13.181839 5.284998 0.858020 1.907053 -75.860780 -17.893263 -10.392783 -86.545805 66.594105 82.880220 0.000000 0.000000 0.000000 
-3.143199 133.963242 58.556328 0.000000 0.000000 0.000000 -4.802673 -28.102308 8.138523 -53.608314 -10.637728 17.108955 10.417300 3.577007 -4.139047 40.298038 -2.583669 -0.469762 0.261509 1.114269 -0.703856 0.000000 0.000000 0.000000 -2.885497 -28.648866 8.316986 -38.702864 -7.205114 -15.670745 66.740312 3.429334 0.285716 13.603460 -5.489753 15.516023 9.597148 1.151365 2.451272 0.000000 0.000000 0.000000 -8.953502 -23.158940 5.645111 18.221104 -1.802309 -1.607774 3.728932 -1.337939 -7.629392 1.551003 -4.858963 2.201932 0.000000 0.000000 0.000000 7.661692 -1.154218 -6.569353 -17.768022 1.628654 17.217240 20.261609 10.259152 -20.488978 0.000000 0.000000 0.000000 6.448336 -1.088014 -7.211333 -2.705154 -21.403928 6.964885 -0.119260 -0.700142 2.965178 -49.485991 -5.781122 5.494248 -55.502483 -69.851272 -36.777181 0.000000 0.000000 0.000000 6.010836 -1.601779 -7.304231 -0.326616 22.415909 -11.456630 4.759678 2.225930 2.966744 -75.462321 -21.807025 -12.394188 -90.767033 65.814706 86.781201 0.000000 0.000000 0.000000 
-3.588017 125.611237 69.765236 0.000000 0.000000 0.000000 -6.886521 -33.752404 7.654771 -45.170708 -14.978328 17.598126 4.226048 3.154507 -1.802138 44.995408 -3.089870 -4.290593 -0.984650 1.246182 -0.118722 0.000000 0.000000 0.000000 -4.406900 -32.979083 8.159399 -30.611200 -10.315132 -17.704535 55.123192 4.672377 1.310426 12.826243 -5.796556 16.744420 4.287311 0.976358 1.926265 0.000000 0.000000 0.000000 -9.403656 -30.485136 5.414005 14.930204 -0.547830 1.404662 4.921241 -0.034537 -8.711911 0.954706 -3.807641 1.805511 0.000000 0.000000 0.000000 8.557952 -0.220647 -7.640610 -16.245390 2.302988 17.362718 19.642144 12.008253 -21.066634 0.000000 0.000000 0.000000 7.161407 0.020214 -8.386757 -4.752653 -17.051313 1.835420 0.210554 0.551635 3.321190 -48.121200 -7.555362 3.318132 -58.754899 -69.957434 -39.189908 0.000000 0.000000 0.000000 6.860245 -0.595814 -8.525911 -0.904976 26.070463 -9.790905 4.107215 3.397826 4.093454 -77.408631 -24.670671 -15.769903 -92.124779 65.249945 87.854722 0.000000 0.000000 0.000000 
-3.745217 115.717598 80.237480 0.000000 0.000000 0.000000 -7.882557 -39.490907 7.085837 -39.005882 -18.328502 18.576619 2.254752 2.257131 -0.034952 46.637160 -5.247586 -7.324606 -2.080852 1.145220 0.664633 0.000000 0.000000 0.000000 -5.846399 -38.213898 7.801526 -25.995790 -12.422915 -19.870176 47.754487 6.139908 2.524575 9.097273 -5.568688 17.544034 -0.379023 0.871802 0.564516 0.000000 0.000000 0.000000 -7.978811 -38.076682 5.912646 12.279180 0.644299 3.980767 5.671082 1.666229 -9.321984 0.352172 -2.753676 1.639650 0.000000 0.000000 0.000000 9.320063 1.179524 -8.375049 -14.909241 3.455521 16.109174 18.145794 13.759044 -21.712036 0.000000 0.000000 0.000000 7.424062 1.657850 -9.052134 -6.085369 -13.578704 -2.026446 0.467564 1.614187 2.914652 -47.670284 -5.180504 1.444308 -69.273233 -71.328226 -49.115477 0.000000 0.000000 0.000000 7.469439 0.919439 -9.258481 -1.786851 28.527480 -7.959190 3.294175 4.576667 4.704165 -80.685755 -25.218310 -19.333233 -91.911322 65.218956 87.398909 0.000000 0.000000 0.000000 
-3.500202 105.048538 89.937233 0.000000 0.000000 0.000000 -7.427325 -45.551624 7.021029 -35.319769 -20.485474 19.873108 4.461910 1.674173 0.755257 45.756175 -7.685669 -9.791711 -2.191756 0.927378 1.117309 0.000000 0.000000 0.000000 -6.776597 -44.602430 7.581247 -25.230980 -13.054360 -22.392866 46.356395 7.150356 3.980821 1.762246 -5.971283 16.155315 -2.175624 0.944350 -0.976078 0.000000 0.000000 0.000000 -4.905650 -45.175800 7.615961 10.598200 1.630815 5.626154 5.868347 3.509892 -9.386650 0.573978 -2.829213 1.847112 0.000000 0.000000 0.000000 9.753946 2.878419 -8.705342 -13.864512 5.008062 13.883337 16.203505 15.220937 -22.269304 0.000000 0.000000 0.000000 7.367801 3.545627 -9.189359 -6.795514 -11.317349 -4.667727 0.765700 2.377732 2.393528 -47.352294 0.986920 -0.232371 -86.946136 -72.561498 -66.602705 0.000000 0.000000 0.000000 7.787371 2.713294 -9.445919 -2.857006 29.667258 -5.657206 2.215074 5.862219 4.977187 -83.397143 -23.723533 -21.589034 -91.301502 65.802883 86.676070 0.000000 0.000000 0.000000 
